<svg width="18" height="20" xmlns="http://www.w3.org/2000/svg"><g fill="none" fill-rule="evenodd"><path d="M9.5.289l7.66 4.422a1 1 0 0 1 .5.866v8.846a1 1 0 0 1-.5.866L9.5 19.71a1 1 0 0 1-1 0L.84 15.29a1 1 0 0 1-.5-.866V5.577a1 1 0 0 1 .5-.866L8.5.29a1 1 0 0 1 1 0z" fill="#25B864"/><path d="M9.905 11.907a4.366 4.366 0 0 1-.024.02h-.04c-.936.789-2.507 1.436-4.841.836 0 0 2.139-2.395 3.5-3.9a.842.842 0 0 1 .033-.035c.412-.462.797-.866 1.042-1.36.336-.931-.502-1.453-.502-1.453s.739-.048 1.867.028c1.129.076 1.375.92 1.375.92l.65.035c-.608.209-.797.799-.702 1.169.094.37.369.56.4 1.405.044 1.228-1.054 2.333-2.355 2.333-.092 0-.226 0-.403.002z" fill="#FFF" opacity=".9"/></g></svg>